<svg viewBox="0 0 401.22 400" xmlns="http://www.w3.org/2000/svg"><defs><style>.cls-1{fill:#0dba4b;}.cls-2{fill:#fff;}</style></defs><g data-name="Layer 2" id="Layer_2"><g data-name="Layer 1" id="Layer_1-2"><path d="M200.61,0C311.4,0,401.22,89.54,401.22,200S311.4,400,200.61,400,0,310.46,0,200,89.82,0,200.61,0Z" class="cls-1" data-name="Path 145663" id="Path_145663"></path><path d="M254.69,171.28v27.35A31.1,31.1,0,0,1,224,230.11H207a49.77,49.77,0,0,0-25.67,8.81A30.08,30.08,0,0,0,172,275.18a24.94,24.94,0,0,0,17.71,12.55A31.19,31.19,0,0,0,224.24,276a45.63,45.63,0,0,0,10-23.14,13.58,13.58,0,0,1,14.33-11.43,13.2,13.2,0,0,1,13.4,12,32.64,32.64,0,0,1-2,12,68.49,68.49,0,0,1-28.11,40,59.93,59.93,0,0,1-58,4.59,47.59,47.59,0,0,1-31.67-42c-2.53-24.26,11.71-52.84,48.53-61.36a91.06,91.06,0,0,1,28.1-2.62c4.87,0,7.12-1.41,8-6a40,40,0,0,0,.56-8.25v-38.6a57.64,57.64,0,0,0-4.12-23.14,26.31,26.31,0,0,0-20.6-16.76c-16.59-2.91-38.79,9.36-36.26,31.38a32.46,32.46,0,0,0,5.15,16.3,25.88,25.88,0,0,0,18.74,10.5,53.43,53.43,0,0,0,9.37.56,13.77,13.77,0,0,1,14.52,12.37A12.84,12.84,0,0,1,202,195.82h-.21a59.59,59.59,0,0,1-51.34-20.62A48.06,48.06,0,0,1,139.83,149a50.71,50.71,0,0,1,3.65-30A59.41,59.41,0,0,1,187.8,86.39a53.22,53.22,0,0,1,63,36.64A99.26,99.26,0,0,1,255.16,155C254.69,160.41,254.69,165.84,254.69,171.28Z" class="cls-2" data-name="Path 3757-2" id="Path_3757-2"></path></g></g></svg>